<?xml version="1.0" encoding="utf-8"?>
<!-- Generator: Adobe Illustrator 21.1.0, SVG Export Plug-In . SVG Version: 6.00 Build 0)  -->
<svg version="1.1" id="Layer_1" xmlns="http://www.w3.org/2000/svg" xmlns:xlink="http://www.w3.org/1999/xlink" x="0px" y="0px"
	 viewBox="0 0 100.1 81.4" style="enable-background:new 0 0 100.1 81.4;" xml:space="preserve">
<style type="text/css">
	.st0{fill-rule:evenodd;clip-rule:evenodd;fill:#EC1C24;}
</style>
<g>
	<path class="st0" d="M98.1,40.7l-9.3,0.1c0-3.9-0.3-9.7-0.9-17.5c-0.6-3.7-1.3-6.4-2.3-8.1c-1.4-2.2-3.7-3.7-6.9-4.4
		c-1.6-0.4-5.8-0.6-12.6-0.9C58,9.7,48.5,9.6,37.5,9.6C29,9.6,23.1,10,20,10.9c-4,1.1-6.8,3.4-8.2,6.9c-1.4,3.5-2.1,9.5-2.1,17.9
		v11.5c0,5.7,0.5,10.4,1.4,14.1c1.6,6.2,7.2,9.7,16.6,10.2c1.4,0.1,8.6,0.1,21.6,0.2v9.4c-1.4,0-3.4,0-6,0.1h-5.9
		c-10.8,0-18.8-1.2-24-3.6c-5.2-2.4-8.7-6.5-10.6-12.4c-1.6-5-2.4-13-2.4-23.8c0-13.4,1.1-22.8,3.3-28.2c2.3-5.7,6.6-9.4,13-11.1
		c4.8-1.3,14.1-1.9,27.7-1.9c7.2,0,14.5,0.1,22.1,0.4c3.1,0.1,7.7,0.4,13.8,1.1c5.5,1,9.6,3.3,12.1,6.8c2.1,2.9,3.7,7.4,4.6,13.6
		C97.7,25.9,98,32.1,98.1,40.7z M99.6,72l-5,7.8L50.2,50.5l5-7.8L99.6,72z"/>
</g>
</svg>
