<?xml version="1.0" encoding="utf-8"?>
<!-- Generator: Adobe Illustrator 21.1.0, SVG Export Plug-In . SVG Version: 6.00 Build 0)  -->
<svg version="1.1" id="Layer_1" xmlns="http://www.w3.org/2000/svg" xmlns:xlink="http://www.w3.org/1999/xlink" x="0px" y="0px"
	 viewBox="0 0 360 79.2" style="enable-background:new 0 0 360 79.2;" xml:space="preserve">
<style type="text/css">
	.st0{fill-rule:evenodd;clip-rule:evenodd;fill:#EC1C24;}
	.st1{fill:#EC1C24;}
</style>
<g>
	<path class="st0" d="M96.3,39.6l-9.1,0.1c0-3.8-0.3-9.5-0.8-17.1c-0.5-3.6-1.3-6.3-2.3-7.9c-1.4-2.2-3.6-3.6-6.8-4.3
		c-1.6-0.3-5.7-0.6-12.3-0.8c-7.9-0.3-17.2-0.4-28-0.4c-8.3,0-14,0.4-17.1,1.3c-4,1.1-6.6,3.3-8,6.7c-1.4,3.4-2.1,9.3-2.1,17.5v11.3
		c0,5.6,0.5,10.2,1.4,13.8c1.6,6.1,7,9.4,16.3,10c1.4,0.1,8.4,0.1,21.1,0.2v9.2c-1.4,0-3.3,0-5.8,0.1h-5.7
		c-10.6,0-18.4-1.2-23.4-3.5c-5.1-2.3-8.5-6.4-10.4-12.1c-1.6-4.9-2.4-12.7-2.4-23.3C0.8,27.2,1.9,18,4,12.7
		c2.2-5.6,6.5-9.2,12.7-10.8C21.5,0.6,30.5,0,43.8,0c7,0,14.2,0.1,21.7,0.4c3,0.1,7.5,0.4,13.5,1.1c5.4,1,9.4,3.2,11.9,6.6
		c2.1,2.8,3.6,7.2,4.5,13.3C95.9,25.1,96.2,31.2,96.3,39.6z M97.9,70.3L93,77.8L49.4,49.2l4.9-7.6L97.9,70.3z"/>
	<path class="st1" d="M149.1,74.2h-12.5c-10.6,0-17.8-1.9-21.4-5.7c-3.6-3.8-5.5-11-5.5-21.7V12.9h9.4L119,50.5
		c0,7.7,2.1,12,6.4,13.2c2.9,0.8,6.6,1.2,11.1,1.3c-5.1-0.1-1.3-0.1,11.2-0.1c13.3,0,21.1-0.8,23.4-2.4c1.9-1.3,3.1-4.4,3.4-9.3
		c0.1-0.5,0.1-4.1,0.1-10.8V12.9h9.3v35.5c0,7.6-0.9,13.1-2.8,16.6c-2.4,4.6-7,7.3-13.8,8.2C163.1,73.9,157.1,74.2,149.1,74.2z"/>
	<path class="st0" d="M269.3,77.6l-30.2-54.1h-6.3l-30.3,54.1l-8.1-4.6L226,16.4c0.9-1.6,2.3-2.4,4.1-2.4h11.8c1.7,0,3.1,0.8,4,2.4
		L277.4,73L269.3,77.6z M231.7,47v-9.5h9.7V47H231.7z"/>
	<path class="st1" d="M355.2,50.7c2,2.6,3,6.8,3,12.7v12H349v-6.2c0-4.2,0-6.2,0.1-6.2c0.1-4.8-0.6-7.7-2.2-8.6h-25.7
		c0.1-2,0.2-3.3,0.1-4v-3.7l27.9-0.3c0.5-1.1,0.7-4.5,0.7-10.2c0-3.8-0.3-6.4-0.9-7.8c-1-2.2-3.1-3.6-6.2-4.2
		c-2.5-0.4-6.5-0.6-12-0.6H296v51.9h-9.3V18.7c0-3.2,1.6-4.7,4.7-4.7h38.5c10.3,0,17.3,1,21,3.1c5.5,3,8.2,9.2,8.2,18.7
		C359.2,42.9,357.9,47.8,355.2,50.7z"/>
</g>
</svg>
