<svg xmlns="http://www.w3.org/2000/svg" width="210mm" height="297mm" viewBox="0 0 210 297"><path d="M24.078 180.33c-.828-1.103-2.312-2.264-3.715-2.904-2.978-1.358-6.663-.947-10.524 1.174-.684.376-1.3.628-1.368.56-.068-.067-.15-18.326-.182-40.574l-.06-40.45h79.056c43.48 0 86.724-.06 96.096-.13l17.04-.131v75.955l-.635-.423c-1.176-.784-4.534-2.353-5.913-2.764-.945-.281-2.16-.44-3.919-.51-2.182-.09-2.789-.044-4.203.312-1.836.462-4.482 1.656-5.853 2.641l-.896.644-.96-.648c-1.95-1.318-4.934-1.92-7.192-1.451-1.452.302-3.56 1.361-4.69 2.355-.49.43-.971.783-1.07.783-.1 0-.394-.232-.654-.517-.724-.787-2.907-2.145-4.057-2.52-1.473-.482-3.608-.325-4.76.35-1.011.593-2.46 2.09-3.103 3.207l-.455.791-.81-1.095c-3.517-4.758-8.203-6.219-12.832-4-1.474.706-3.514 2.071-4.146 2.775l-.365.405-1.101-.55c-2.35-1.174-3.644-1.485-6.185-1.485-2.136 0-2.446.047-3.464.524-1.402.657-2.89 2.036-3.783 3.506l-.689 1.134-.9-.687c-1.869-1.427-3.673-2.036-6.008-2.029-2.8.01-5.234 1.133-7.942 3.666l-1.521 1.423-1.531-.769c-3.312-1.664-6.257-2.272-10.23-2.113-4.085.164-7.339 1.096-11.646 3.338l-1.968 1.025-.866-.668c-1.476-1.138-4.361-2.746-6.378-3.555-7.629-3.06-14.64-2.778-21.736.878-1.142.589-2.789 1.584-3.658 2.212l-1.58 1.141-.57-.465c-.971-.794-2.846-1.767-4.48-2.326-1.318-.45-1.902-.536-3.714-.546-3.079-.016-5.157.656-7.878 2.546-.678.47-1.255.855-1.284.855-.028 0-.352-.4-.718-.89z" fill="none"/><path style="line-height:normal;font-variant-ligatures:normal;font-variant-position:normal;font-variant-caps:normal;font-variant-numeric:normal;font-variant-alternates:normal;font-feature-settings:normal;text-indent:0;text-align:start;text-decoration-line:none;text-decoration-style:solid;text-decoration-color:#000;text-transform:none;text-orientation:mixed;shape-padding:0;isolation:auto;mix-blend-mode:normal" d="M201.088 90.317l-60.687.13c-33.305.072-76.548.131-96.095.131H8.632l.059 40.584c.016 11.124.045 21.25.078 28.606.017 3.677.035 6.661.053 8.73.01 1.036.018 1.841.027 2.391a46.79 46.79 0 0 0 .02.797l.004.05.003.023.005.019a.581.581 0 0 0 .033.053v.001a.18.18 0 0 0 .137.052.447.447 0 0 0 .11-.015 1.7 1.7 0 0 0 .266-.092 5.8 5.8 0 0 0 .725-.385c1.475-.908 3.823-1.765 5.497-2.01 3.43-.5 6.931.919 8.906 3.603l.239.325v-.008l.23.306a6.967 6.967 0 0 0 .209.252c.008.008.014.015.024.023s0 .024.073.035c.04.007.052 0 .063-.004a.315.315 0 0 0 .053-.024 7.443 7.443 0 0 0 .285-.194c.176-.127.41-.302.663-.495 2.18-1.663 5.387-2.795 7.885-2.79 2.68.008 5.623.988 7.93 2.645.322.232.592.396.811.492.11.048.206.08.297.09a.351.351 0 0 0 .26-.053c5.51-4.034 10.057-5.8 15.553-6.05 5.62-.257 12.114 1.75 16.897 5.223l1.405 1.02 2.642-1.317c4.421-2.206 7.71-3.038 12.012-3.042 3.577-.004 6.706.744 9.451 2.252l1.35.742 1.464-1.418c2.797-2.712 5.172-3.813 8.142-3.789 2.073.017 3.35.436 5.364 1.763.367.242.708.453.963.601.128.074.234.132.314.17a.87.87 0 0 0 .105.045c.016.005.03.01.054.013.023.002.076.012.127-.05h.001v-.001c.03-.037.041-.06.076-.117l.138-.229c.11-.186.254-.432.406-.694.29-.504.96-1.356 1.464-1.86 1.859-1.858 4.535-2.6 7.435-2.048 1.262.24 3.545 1.027 5.206 1.799.071.033.116.016.16.004a.844.844 0 0 0 .139-.054c.102-.048.227-.12.371-.213.29-.184.655-.449 1.032-.752 2.352-1.887 5.147-2.997 7.495-2.992 2.853.007 5.923 1.763 8.06 4.636.28.377.541.72.736.97a12.73 12.73 0 0 0 .312.382l.03.03c.005.004.01.01.02.016a.141.141 0 0 0 .078.024c.076 0 .082-.025.094-.035a.837.837 0 0 0 .073-.086c.034-.048.077-.112.128-.19a16.1 16.1 0 0 0 .373-.61c1.105-1.885 3.088-3.371 4.86-3.667 1.722-.287 4.115.6 6.32 2.387l1.236 1.003 1.326-1.016c.678-.52 1.566-1.115 1.936-1.303 2.864-1.459 6.46-1.284 9.357.461a49.92 49.92 0 0 0 1.097.64 2.323 2.323 0 0 0 .112.057c.01.004.003.013.062.013.06 0 .055-.01.065-.015l.03-.015.077-.045c.062-.037.145-.09.246-.155.2-.13.468-.308.757-.504 2.825-1.92 5.732-2.827 9.085-2.835 3.361-.008 6.318.85 9.49 2.756l1.785 1.073zm-.264.265v75.513l-1.385-.832c-3.204-1.926-6.22-2.802-9.626-2.794-3.4.008-6.37.935-9.233 2.882a40.73 40.73 0 0 1-.992.65c-.016.011-.026.016-.038.023l-.045-.024a50.06 50.06 0 0 1-1.085-.634c-2.974-1.79-6.664-1.973-9.615-.47-.415.212-1.288.8-1.977 1.33l-1.16.888-1.075-.871c-2.243-1.82-4.683-2.75-6.53-2.443-1.88.314-3.9 1.843-5.044 3.794a18.36 18.36 0 0 1-.366.6l-.082.12a12.73 12.73 0 0 1-.224-.28 53.369 53.369 0 0 1-.732-.964c-2.178-2.93-5.311-4.737-8.271-4.743-2.432-.006-5.27 1.13-7.66 3.05-.372.297-.732.558-1.01.735a3.392 3.392 0 0 1-.342.197.659.659 0 0 1-.096.038c-.019.005-.021-.01.022.01-1.683-.78-3.96-1.568-5.269-1.818-2.972-.566-5.747.197-7.671 2.122-.526.525-1.193 1.371-1.506 1.914a65.216 65.216 0 0 1-.54.917l-.01.016-.014-.006a4.858 4.858 0 0 1-.295-.16 20.914 20.914 0 0 1-.95-.595c-2.037-1.34-3.399-1.788-5.508-1.805-3.037-.025-5.504 1.124-8.328 3.863l-1.323 1.283-1.18-.649c-2.787-1.532-5.964-2.288-9.578-2.285-4.337.004-7.686.853-12.13 3.07l-2.498 1.246-1.276-.926c-4.836-3.512-11.372-5.533-17.064-5.274-5.546.252-10.16 2.048-15.698 6.102-.001 0-.019.01-.07.004a.872.872 0 0 1-.224-.07c-.19-.083-.45-.24-.763-.465-2.353-1.69-5.34-2.687-8.084-2.694-2.578-.006-5.813 1.14-8.045 2.844a29.89 29.89 0 0 1-.658.49c-.084.06-.151.107-.2.14a6.735 6.735 0 0 1-.143-.177c-.124-.158-.29-.376-.465-.615l-.239-.325v.046c-2.069-2.578-5.518-3.925-8.918-3.43-1.726.252-4.08 1.113-5.597 2.046a5.611 5.611 0 0 1-.69.367 1.475 1.475 0 0 1-.193.069l-.004-.09a46.38 46.38 0 0 1-.013-.627c-.01-.548-.018-1.354-.027-2.389-.018-2.069-.036-5.052-.053-8.73-.033-7.354-.062-17.48-.079-28.604l-.058-40.32h35.409c19.547 0 62.79-.058 96.096-.13z" color="#000" font-weight="400" font-family="sans-serif" white-space="normal" overflow="visible"/></svg>