<svg xmlns="http://www.w3.org/2000/svg" width="729.535" height="318.266" viewBox="0 0 729.53544 318.26556"><path d="M1.24 310.83c43.594-29.556 62.805 6.65 62.805 6.65 36.205-31.033 67.977-.74 67.977-.74 67.976-54.676 129.303 0 129.303 0 57.633-35.466 96.055-5.172 96.055-5.172 33.988-39.899 62.065-8.866 62.065-8.866 16.995-38.422 56.894-12.561 56.894-12.561 43.594-40.638 68.716 8.128 68.716 8.128 19.95-39.161 49.505-5.172 49.505-5.172 27.338-27.34 52.46-4.434 52.46-4.434 42.116-33.25 82.015 1.478 82.015 1.478V.5L.501 1.239z" fill="none" stroke="#000"/><path d="M61.484 312.464c-3.127-4.173-8.736-8.559-14.04-10.977-11.257-5.134-25.182-3.582-39.774 4.435-2.588 1.422-4.916 2.376-5.172 2.12-.256-.256-.566-69.265-.689-153.352L1.586 1.803h298.793c164.336 0 327.774-.22 363.197-.49L727.981.82v287.074l-2.402-1.6c-4.446-2.962-17.137-8.893-22.35-10.445-3.57-1.063-8.16-1.661-14.81-1.93-8.248-.335-10.54-.165-15.886 1.182-6.941 1.747-16.941 6.26-22.122 9.982l-3.386 2.433-3.627-2.45c-7.375-4.981-18.651-7.256-27.182-5.483-5.488 1.141-13.46 5.144-17.73 8.902-1.849 1.627-3.668 2.958-4.042 2.958-.375 0-1.488-.878-2.473-1.952-2.734-2.978-10.987-8.108-15.333-9.529-5.565-1.82-13.637-1.225-17.993 1.328-3.818 2.238-9.296 7.9-11.724 12.118l-1.722 2.991-3.06-4.14c-13.293-17.981-31.005-23.503-48.499-15.12-5.569 2.67-13.28 7.831-15.67 10.49l-1.379 1.532-4.163-2.08c-8.877-4.438-13.773-5.613-23.374-5.613-8.073 0-9.245.177-13.092 1.98-5.3 2.485-10.923 7.696-14.3 13.254l-2.602 4.284-3.401-2.597c-7.064-5.392-13.884-7.694-22.71-7.666-10.584.034-19.78 4.279-30.018 13.855l-5.748 5.378-5.786-2.907c-12.516-6.288-23.648-8.588-38.666-7.986-15.438.618-27.736 4.143-44.013 12.617l-7.438 3.873-3.276-2.525c-5.578-4.3-16.481-10.379-24.103-13.436-28.834-11.569-55.337-10.498-82.153 3.318-4.318 2.225-10.54 5.987-13.826 8.36l-5.974 4.314-2.153-1.76c-3.67-2.999-10.757-6.677-16.93-8.788-4.982-1.703-7.19-2.027-14.04-2.064-11.634-.062-19.491 2.477-29.775 9.621-2.56 1.778-4.742 3.233-4.85 3.233-.108 0-1.33-1.514-2.716-3.363z" fill="#700000" fill-opacity="0" stroke="#666" stroke-width=".739" stroke-opacity="0"/><path d="M61.67 312.691c-7.58-10.305-20.989-15.733-34.134-13.817-6.426.937-15.31 4.184-20.966 7.663-1.975 1.214-3.803 1.995-4.064 1.735-.26-.26-.574-69.273-.697-153.36L1.586 2.025h134.33c73.88 0 237.32-.222 363.197-.492L727.98 1.04v286.788l-5.991-3.6c-12.048-7.241-23.336-10.519-36.125-10.488-12.761.03-23.867 3.496-34.617 10.804-2.175 1.478-4.046 2.687-4.16 2.687-.112 0-2.157-1.176-4.543-2.613-11.094-6.682-24.862-7.358-35.852-1.761-1.483.756-4.811 2.994-7.396 4.975l-4.698 3.601-4.367-3.542c-8.404-6.818-17.54-10.252-24.284-9.127-6.901 1.151-14.467 6.85-18.715 14.099-1.043 1.78-1.985 3.235-2.093 3.235-.11 0-1.929-2.328-4.045-5.173-8.154-10.965-19.878-17.699-30.863-17.724-9.032-.02-19.675 4.223-28.639 11.418-2.828 2.27-5.488 3.968-5.91 3.772-6.32-2.934-14.938-5.91-19.796-6.835-11.098-2.113-21.398.73-28.548 7.88-1.945 1.945-4.47 5.154-5.612 7.131-1.141 1.977-2.175 3.715-2.296 3.863-.122.147-2.484-1.222-5.25-3.043-7.655-5.042-12.64-6.678-20.543-6.742-11.353-.092-20.503 4.159-31.126 14.459l-5.266 5.105-4.78-2.628c-10.454-5.746-22.373-8.588-35.961-8.575-16.328.016-28.87 3.19-45.626 11.55l-9.711 4.846-5.067-3.68c-18.178-13.2-42.802-20.812-64.177-19.838-20.869.95-38.178 7.681-59.06 22.966-.579.424-2.176-.275-4.583-2.004-8.803-6.324-20.013-10.06-30.26-10.086-9.593-.023-21.768 4.282-30.104 10.645-1.904 1.453-3.542 2.63-3.64 2.614-.099-.016-1.271-1.514-2.606-3.329z" fill="#eee" fill-opacity=".97" stroke="#666660" stroke-width=".737" stroke-opacity="0"/></svg>