<svg id="Layer_1" xmlns="http://www.w3.org/2000/svg" viewBox="0 0 100.1 81.4"><style>.st0{fill-rule:evenodd;clip-rule:evenodd;fill:#ec1c24}</style><path class="st0" d="M98.1 40.7l-9.3.1c0-3.9-.3-9.7-.9-17.5-.6-3.7-1.3-6.4-2.3-8.1-1.4-2.2-3.7-3.7-6.9-4.4-1.6-.4-5.8-.6-12.6-.9-8.1-.2-17.6-.3-28.6-.3-8.5 0-14.4.4-17.5 1.3-4 1.1-6.8 3.4-8.2 6.9-1.4 3.5-2.1 9.5-2.1 17.9v11.5c0 5.7.5 10.4 1.4 14.1 1.6 6.2 7.2 9.7 16.6 10.2 1.4.1 8.6.1 21.6.2v9.4c-1.4 0-3.4 0-6 .1h-5.9c-10.8 0-18.8-1.2-24-3.6-5.2-2.4-8.7-6.5-10.6-12.4-1.6-5-2.4-13-2.4-23.8C.4 28 1.5 18.6 3.7 13.2c2.3-5.7 6.6-9.4 13-11.1C21.5.8 30.8.2 44.4.2c7.2 0 14.5.1 22.1.4 3.1.1 7.7.4 13.8 1.1 5.5 1 9.6 3.3 12.1 6.8 2.1 2.9 3.7 7.4 4.6 13.6.7 3.8 1 10 1.1 18.6zM99.6 72l-5 7.8-44.4-29.3 5-7.8L99.6 72z"/></svg>