<svg id="Layer_1" xmlns="http://www.w3.org/2000/svg" viewBox="0 0 360 79.2"><style>.st0{fill-rule:evenodd;clip-rule:evenodd}.st0,.st1{fill:#ec1c24}</style><path class="st0" d="M96.3 39.6l-9.1.1c0-3.8-.3-9.5-.8-17.1-.5-3.6-1.3-6.3-2.3-7.9-1.4-2.2-3.6-3.6-6.8-4.3-1.6-.3-5.7-.6-12.3-.8-7.9-.3-17.2-.4-28-.4-8.3 0-14 .4-17.1 1.3-4 1.1-6.6 3.3-8 6.7-1.4 3.4-2.1 9.3-2.1 17.5V46c0 5.6.5 10.2 1.4 13.8 1.6 6.1 7 9.4 16.3 10 1.4.1 8.4.1 21.1.2v9.2c-1.4 0-3.3 0-5.8.1h-5.7c-10.6 0-18.4-1.2-23.4-3.5-5.1-2.3-8.5-6.4-10.4-12.1C1.7 58.8.9 51 .9 40.4.8 27.2 1.9 18 4 12.7c2.2-5.6 6.5-9.2 12.7-10.8C21.5.6 30.5 0 43.8 0c7 0 14.2.1 21.7.4 3 .1 7.5.4 13.5 1.1 5.4 1 9.4 3.2 11.9 6.6 2.1 2.8 3.6 7.2 4.5 13.3.5 3.7.8 9.8.9 18.2zm1.6 30.7L93 77.8 49.4 49.2l4.9-7.6 43.6 28.7z"/><path class="st1" d="M149.1 74.2h-12.5c-10.6 0-17.8-1.9-21.4-5.7-3.6-3.8-5.5-11-5.5-21.7V12.9h9.4l-.1 37.6c0 7.7 2.1 12 6.4 13.2 2.9.8 6.6 1.2 11.1 1.3-5.1-.1-1.3-.1 11.2-.1 13.3 0 21.1-.8 23.4-2.4 1.9-1.3 3.1-4.4 3.4-9.3.1-.5.1-4.1.1-10.8V12.9h9.3v35.5c0 7.6-.9 13.1-2.8 16.6-2.4 4.6-7 7.3-13.8 8.2-4.2.7-10.2 1-18.2 1z"/><path class="st0" d="M269.3 77.6l-30.2-54.1h-6.3l-30.3 54.1-8.1-4.6L226 16.4c.9-1.6 2.3-2.4 4.1-2.4h11.8c1.7 0 3.1.8 4 2.4L277.4 73l-8.1 4.6zM231.7 47v-9.5h9.7V47h-9.7z"/><path class="st1" d="M355.2 50.7c2 2.6 3 6.8 3 12.7v12H349v-6.2c0-4.2 0-6.2.1-6.2.1-4.8-.6-7.7-2.2-8.6h-25.7c.1-2 .2-3.3.1-4v-3.7l27.9-.3c.5-1.1.7-4.5.7-10.2 0-3.8-.3-6.4-.9-7.8-1-2.2-3.1-3.6-6.2-4.2-2.5-.4-6.5-.6-12-.6H296v51.9h-9.3V18.7c0-3.2 1.6-4.7 4.7-4.7h38.5c10.3 0 17.3 1 21 3.1 5.5 3 8.2 9.2 8.2 18.7.1 7.1-1.2 12-3.9 14.9z"/></svg>